<?xml version="1.0" ?><svg fill="#000" id="cup" width="40px" style="enable-background:new 0 0 32 32;" version="1.1" viewBox="0 0 32 32" xml:space="preserve" xmlns="http://www.w3.org/2000/svg" xmlns:xlink="http://www.w3.org/1999/xlink"><g><path d="M24.6,25h0.9c2.5,0,4.5-2,4.5-4.5c0-2.3-1.8-4.2-4-4.4V15c0-0.6-0.4-1-1-1H7c-0.6,0-1,0.4-1,1v5c0,3.3,1.6,6.2,4,8H5   c-0.6,0-1,0.4-1,1s0.4,1,1,1h22c0.6,0,1-0.4,1-1s-0.4-1-1-1h-5C23.1,27.2,24,26.2,24.6,25z M28,20.5c0,1.4-1.1,2.5-2.5,2.5   c0.3-0.9,0.5-2,0.5-3v-1.9C27.1,18.3,28,19.3,28,20.5z M24,16v2.4c-1.1,0.5-4.1,1.4-7.6-0.3c-3.5-1.7-6.6-0.8-8.4,0.1V16H24z    M8,20.5c1-0.7,4-2.3,7.5-0.6c1.8,0.9,3.5,1.1,5,1.1c1.4,0,2.6-0.3,3.5-0.5c-0.1,1-0.3,2-0.7,2.8c-0.1,0.1-0.2,0.3-0.2,0.4   c-1.4,2.5-4,4.2-7,4.2C11.8,28,8.3,24.7,8,20.5z" stroke="white" /><path d="M11,11h3c0.3,0,0.5,0.2,0.5,0.5V12c0,0.6,0.4,1,1,1s1-0.4,1-1v-0.5c0-1.4-1.1-2.5-2.5-2.5h-3c-0.3,0-0.5-0.2-0.5-0.5   S10.7,8,11,8h9.5c1.7,0,3-1.3,3-3s-1.3-3-3-3h-10c-0.6,0-1,0.4-1,1s0.4,1,1,1h10c0.6,0,1,0.4,1,1s-0.4,1-1,1H11   C9.6,6,8.5,7.1,8.5,8.5S9.6,11,11,11z" stroke="white"/></g></svg>